<?xml version="1.0" encoding="UTF-8"?>
<!DOCTYPE svg PUBLIC "-//W3C//DTD SVG 1.1//EN" "http://www.w3.org/Graphics/SVG/1.1/DTD/svg11.dtd">
<!-- Creator: CorelDRAW 2020 (64-Bit) -->
<svg xmlns="http://www.w3.org/2000/svg" xml:space="preserve" width="114.653mm" height="46.5666mm" version="1.1" style="shape-rendering:geometricPrecision; text-rendering:geometricPrecision; image-rendering:optimizeQuality; fill-rule:evenodd; clip-rule:evenodd"
viewBox="0 0 11465.28 4656.66"
 xmlns:xlink="http://www.w3.org/1999/xlink"
 xmlns:xodm="http://www.corel.com/coreldraw/odm/2003">
 <defs>
  <style type="text/css">
   <![CDATA[
    .fil0 {fill:#141C3A}
    .fil3 {fill:#5BE8B9}
    .fil1 {fill:#6E07F2}
    .fil2 {fill:white}
   ]]>
  </style>
 </defs>
 <g id="Layer_x0020_1">
  <metadata id="CorelCorpID_0Corel-Layer"/>
  <g id="_2212625971360">
   <path class="fil0" d="M3376.8 550.55c-262.68,0 -522.23,0 -784.9,0 -34.4,0 -56.29,0 -84.44,12.7 -21.89,8.88 -43.78,26.66 -53.16,43.17 -37.52,50.78 -31.27,96.49 -31.27,166.32l0 1954.04 -171.99 1.27c-6.26,-2.54 -6.26,-10.16 -9.38,-24.12 -3.13,-10.16 -6.26,-19.05 -9.38,-27.94 -90.69,-256.47 -318.97,-445.65 -603.54,-468.51 -503.47,-39.36 -878.72,448.2 -716.11,917.98 128.21,374.56 534.74,568.82 909.99,427.88 31.27,-12.69 65.67,-29.2 93.82,-45.71 15.63,-10.15 31.27,-17.77 46.9,-26.66 6.26,-6.35 31.27,-26.66 40.66,-29.2 3.12,49.52 0,110.46 0,161.25l0 660.23c0,49.52 -6.26,109.19 15.63,149.82 18.76,31.75 56.29,59.68 106.32,60.95 56.29,1.27 112.58,0 165.74,0l494.09 0c56.29,0 90.68,-25.4 109.45,-57.14 28.14,-41.9 18.76,-88.87 18.76,-144.74 0,-67.29 0,-465.97 3.13,-496.45l1460.36 -1.27 -40.65 534.54c-25.02,5.08 -106.32,1.27 -137.59,1.27 -46.91,0 -81.31,-5.08 -112.58,22.85 -28.14,27.94 -25.02,62.22 -25.02,110.47 0,27.93 12.51,30.47 37.53,30.47 409.65,-2.54 828.69,-1.27 1238.34,0 25.02,0 43.78,3.81 46.91,-22.86 6.25,-44.43 3.12,-91.41 -21.89,-116.81 -28.15,-27.93 -65.67,-24.12 -112.58,-24.12 -46.91,0 -93.81,0 -140.72,0l-40.65 -534.54 647.31 -1.27c6.26,66.03 -6.25,333.93 3.13,392.34 3.13,24.12 15.63,50.78 28.14,67.29 6.26,7.62 12.51,11.43 15.64,19.04 -65.67,1.27 -150.1,0 -218.9,0 -28.14,0 -50.03,-5.07 -53.16,24.13 -3.13,36.82 -3.13,106.65 12.51,135.85 40.65,82.53 140.72,60.95 234.53,60.95l3267.85 0c43.78,0 103.19,3.81 146.97,0 43.78,-3.81 75.05,-31.74 87.56,-59.68 15.64,-31.74 15.64,-97.76 12.51,-137.12 0,-27.94 -21.89,-24.13 -46.91,-24.13 -46.9,0 -200.13,2.54 -225.15,-1.27 12.51,-8.88 31.27,-35.55 40.65,-58.4 9.38,-29.2 6.26,-62.22 6.26,-93.96 0,-204.42 -3.13,-413.91 0,-617.06l566.01 0c65.67,0 109.45,5.08 153.22,-33.01 40.66,-33.02 50.04,-66.03 50.04,-137.13l0 -1692.48c0,-55.87 9.38,-124.43 -15.64,-168.87 -21.89,-35.55 -59.41,-69.83 -115.7,-73.64 -56.29,-3.81 -128.21,0 -187.63,0 -625.42,0 -1253.97,0 -1879.4,0 -50.03,0 -137.59,-6.35 -175.12,11.43 -40.65,17.77 -75.05,53.32 -84.43,105.38 -6.25,40.63 -3.13,138.39 -3.13,184.1 3.13,45.71 3.13,356.78 0,375.83l-315.84 0c-6.25,-25.4 3.13,-1237.94 -3.12,-1373.8 0,-62.21 -34.4,-101.57 -71.93,-123.15 -46.91,-24.13 -125.08,-16.51 -181.37,-16.51l-1182.05 0c-59.42,0 -137.6,3.81 -197.01,0 0,-62.22 0,-129.51 0,-192.99 0,-64.76 0,-128.24 0,-192.99 0,-50.79 6.25,-106.66 -53.16,-139.67 -40.66,-22.85 -125.09,-13.96 -178.25,-13.96 -515.98,0 -1028.82,0 -1544.8,0 -50.03,0 -140.72,-7.62 -178.25,13.96 -18.76,10.16 -34.39,27.93 -43.78,49.52 -12.5,26.66 -9.38,57.13 -9.38,87.61 0,64.75 0,129.5 0,192.99 0,62.21 3.13,134.58 0,195.53z"/>
   <path class="fil1" d="M2704.47 2728.05c50.04,0 103.2,-7.62 143.85,13.97 31.27,16.5 62.54,48.24 65.67,97.76 3.13,35.55 3.13,274.25 3.13,326.31l2798.77 0c-3.13,-257.74 0,-533.27 0,-793.55 0,-44.44 0,-87.61 0,-132.05 0,-46.97 0,-76.18 25.02,-111.73 15.63,-24.12 37.52,-45.71 71.92,-57.13 34.4,-11.43 87.56,-7.62 125.09,-7.62 178.24,0 356.49,0 534.74,0 84.43,0 181.37,2.54 262.67,0 -3.12,-50.79 0,-113 0,-165.06l0 -970.04c0,-36.82 0,-91.41 -56.28,-102.84 -34.4,-6.35 -125.09,-1.27 -162.61,-1.27l-484.71 0c-46.91,0 -616.04,3.81 -647.31,0 6.25,412.65 0,826.56 0,1240.48 0,93.95 25.01,204.42 -75.05,233.62 -28.15,7.62 -259.56,3.81 -306.46,3.81l-1394.7 0c-34.4,0 -128.21,3.81 -153.23,-3.81 -37.52,-10.16 -68.8,-39.36 -75.05,-78.72 -9.38,-30.47 -3.13,-116.81 -3.13,-152.36 0,-206.96 0,-413.92 0,-620.88 0,-205.68 -6.25,-416.45 0,-622.14 -162.61,0 -325.22,0 -484.7,0 -40.65,0 -125.09,-6.35 -153.23,8.89 -40.65,21.58 -34.4,68.56 -34.4,124.43l0 1769.93z"/>
   <path class="fil2" d="M9762.39 1679.29l-2389.12 0c-3.13,58.41 0,125.7 0,185.38l0 1298.88c0,62.22 -3.13,124.43 0,186.64 0,54.6 34.4,93.96 81.3,104.12 28.15,7.62 312.72,3.81 369,3.81l1673.01 0c40.66,0 146.98,5.08 181.38,-2.54 46.9,-10.16 84.43,-49.52 84.43,-102.85 3.13,-60.94 0,-125.7 0,-186.64l0 -1298.88c0,-60.95 3.13,-128.24 0,-187.92z"/>
   <path class="fil3" d="M8880.54 3492.4c-112.58,3.81 -231.41,0 -343.98,0l-1038.21 0c-59.41,0 -96.94,-13.97 -125.08,-45.71 -34.4,-40.63 -37.53,-69.83 -37.53,-135.86l0 -691.97c0,-114.27 3.13,-232.35 0,-346.62l-1400.95 0c-37.52,0 -68.8,-3.81 -71.92,36.82 -3.13,69.83 0,147.28 0,217.11l0 1512.19c0,43.17 6.25,55.87 53.16,55.87 609.79,-2.54 1225.83,0 1835.62,0l1078.86 0c43.78,0 50.03,-16.51 50.03,-58.41 -3.13,-177.75 -6.25,-368.21 0,-543.42z"/>
   <polygon class="fil2" points="5715.89,3166.09 2917.12,3166.09 2917.12,3748.87 5715.89,3748.87 "/>
   <path class="fil3" d="M1531.8 2241.76c-350.24,22.86 -644.19,322.5 -619.17,702.14 21.89,350.43 322.09,642.45 700.48,618.33 350.23,-21.58 644.18,-323.77 619.17,-702.13 -21.89,-349.16 -322.1,-642.46 -700.48,-618.34z"/>
   <path class="fil2" d="M8880.54 3492.4c-6.25,175.21 -3.13,365.67 0,543.42 0,41.9 -6.25,58.41 -50.03,58.41l-1078.86 0c-609.79,0 -1225.83,-2.54 -1835.62,0 -46.91,0 -53.16,-12.7 -53.16,-55.87l0 -1512.19c0,-69.83 -3.13,-147.28 0,-217.11 3.12,-40.63 34.4,-36.82 71.92,-36.82l1400.95 0 0 -172.68 -1450.98 0c-43.78,0 -65.67,1.27 -93.82,24.12 -21.89,15.24 -37.52,45.71 -37.52,85.07 -3.13,81.26 0,163.79 0,245.05l0 1695.02c0,39.36 12.51,71.1 34.4,87.61 28.14,22.85 50.03,26.66 93.81,26.66l2911.35 0c84.43,0 150.1,10.16 184.5,-54.59 18.77,-34.28 15.64,-66.03 15.64,-106.66l0 -608.17 -112.58 -1.27z"/>
   <path class="fil0" d="M11332.21 4077.72l0 -69.83c-3.13,-10.16 -6.26,-35.55 -9.38,-49.52 -28.15,-87.61 -96.95,-154.9 -181.38,-185.37 -9.38,-2.54 -15.63,-5.08 -25.01,-6.35 -21.89,-5.08 -18.77,-2.54 -21.89,-8.89 0,-38.09 0,-77.45 0,-115.54 0,-46.98 -28.15,-43.17 -68.8,-43.17 -78.18,0 -156.36,1.27 -231.41,0 -21.89,-66.02 -125.08,-96.49 -181.37,-24.12 -6.26,6.35 -9.38,20.31 -18.76,24.12 -90.69,0 -184.5,0 -275.19,0 -59.42,0 -46.91,39.36 -46.91,90.15 0,227.27 -3.13,457.08 0,684.36 0,43.17 18.76,74.91 43.78,91.41 37.53,24.13 71.93,19.05 118.83,19.05l547.25 0c46.91,0 75.05,-19.05 93.81,-45.71 25.02,-33.01 18.77,-72.37 18.77,-116.81 65.66,-7.62 131.33,-50.79 159.48,-82.53 71.92,-76.18 65.67,-134.59 78.18,-161.25z"/>
   <path class="fil0" d="M299.71 4175.49l0 62.21c0,0 0,1.27 0,1.27l3.13 5.08c9.38,30.47 3.13,46.98 31.27,95.22 18.76,31.75 37.53,54.6 59.42,73.65 50.03,44.44 106.32,71.1 197.01,71.1 178.24,0 356.49,0 534.73,0 34.4,0 515.98,2.54 534.74,-1.27 15.64,-3.81 31.27,-17.78 34.4,-35.55 0,-10.16 0,-52.06 -3.13,-62.22 -3.12,-16.5 -15.63,-30.47 -31.27,-35.55 -28.14,-10.16 -187.63,0 -184.5,-147.28 0,-83.8 56.29,-120.62 131.34,-135.86 28.15,-5.08 78.18,0 87.56,-48.24 6.25,-41.9 0,-86.34 -40.65,-91.42 -25.02,-2.54 -1050.72,0 -1069.48,0 -90.68,0 -143.85,30.47 -193.88,72.37 -71.92,62.21 -84.43,149.82 -90.69,172.68l0 3.81z"/>
   <path class="fil2" d="M5384.42 824.8c31.27,3.81 600.4,0 647.31,0l484.71 0c37.52,0 128.21,-5.08 162.61,1.27 56.28,11.43 56.28,66.02 56.28,102.84l0 970.04c0,52.06 -3.12,114.27 0,165.06l247.05 0 0 -1344.59c0,-34.28 0,-54.6 -15.64,-81.26 -9.38,-17.78 -28.14,-35.55 -50.03,-44.44 -31.27,-12.7 -143.85,-7.62 -184.5,-7.62l-1250.85 0c-28.15,0 -68.8,-2.54 -96.94,1.27l0 237.43z"/>
   <path class="fil2" d="M2704.47 2728.05l0 -1769.93c0,-55.87 -6.25,-102.85 34.4,-124.43 28.14,-15.24 112.58,-8.89 153.23,-8.89 159.48,0 322.09,0 484.7,0l0 -238.7c-256.42,0 -509.72,0 -763.01,0 -53.17,0 -106.33,-5.08 -140.73,53.33 -21.89,40.63 -12.5,121.89 -12.5,175.21l0 1912.14 243.91 1.27z"/>
   <path class="fil2" d="M8436.49 2484.27l46.91 0 0 140.94 -43.78 1.27c21.89,166.32 178.24,316.15 343.98,340.27l0 -44.44 140.72 0 3.13 44.44c96.94,-12.7 178.24,-68.56 225.15,-116.81 28.15,-26.66 50.04,-55.87 75.05,-96.5 15.64,-30.47 37.53,-87.6 43.78,-126.96l-50.03 -1.27 0 -140.94 50.03 0 0 -7.62c-25.02,-166.32 -171.99,-317.42 -340.85,-341.54l0 43.17 -140.73 0 0 -40.63c-6.25,-3.81 6.26,-5.08 -9.38,-2.54 -65.67,10.16 -131.34,40.63 -181.37,78.72 -9.38,7.62 -15.64,12.7 -25.02,20.32 -9.38,7.61 -12.51,12.69 -18.76,20.31 -62.54,54.6 -103.19,144.74 -118.83,229.81z"/>
   <path class="fil2" d="M11060.15 3638.41l-262.68 -3.81 0 203.15c46.91,0 90.69,-7.62 109.45,29.2 9.38,20.32 6.25,107.93 6.25,137.13 0,34.28 6.26,106.65 -9.38,130.78 -21.89,30.47 -78.18,21.58 -121.96,21.58 -40.65,0 -100.07,8.89 -121.96,-17.77 -21.88,-25.4 -12.5,-91.42 -12.5,-129.51 0,-27.94 -3.13,-119.35 3.12,-138.4 18.77,-41.9 62.55,-30.47 109.45,-33.01l0 -203.15 -453.43 0c0,198.07 0,396.14 0,594.21 0,48.25 0,97.77 0,147.29 0,44.43 31.27,72.37 75.05,72.37 193.88,2.54 397.15,0 594.15,0 43.78,0 78.18,-19.05 84.44,-66.03 3.12,-44.43 0,-102.84 0,-148.55 0,-199.34 0,-397.41 0,-595.48z"/>
   <path class="fil2" d="M9218.27 4298.65l-1588.58 0c-18.76,25.39 -6.25,17.77 -34.4,48.24 -53.16,54.6 -153.23,41.9 -225.15,41.9 -46.91,0 -128.21,5.08 -168.86,-7.62 -21.89,-7.61 -43.78,-20.31 -56.29,-33.01 -9.38,-8.89 -12.51,-12.69 -18.77,-22.85 -6.25,-8.89 -12.5,-17.78 -18.76,-26.66l-1579.2 0c-6.25,27.93 -3.12,91.41 9.39,113 18.76,29.2 40.65,36.82 87.56,36.82l3492.99 0c100.07,0 106.33,-50.79 100.07,-149.82z"/>
   <path class="fil2" d="M4371.23 4320.23l703.6 0 -40.65 -533.27c-3.13,-1.27 0,0 -6.26,-1.27l-612.91 0 -43.78 534.54z"/>
   <path class="fil2" d="M3411.2 219.16l1938.82 0c0,-66.02 15.63,-146.01 -43.78,-167.6 -18.76,-7.61 -46.91,-5.07 -68.8,-5.07l-1713.66 0c-53.16,0 -81.31,-1.27 -103.2,36.82 -15.63,25.39 -9.38,100.3 -9.38,135.85z"/>
   <path class="fil2" d="M1509.91 4348.16c-12.51,-10.15 -21.89,-16.5 -34.4,-29.2 -9.38,-12.7 -12.51,-24.12 -21.89,-38.09l-869.34 0c-15.63,0 -40.65,5.08 -43.78,-13.97 -6.25,-21.58 15.64,-21.58 31.27,-21.58l637.94 0c78.17,0 156.35,2.54 231.4,0 0,-12.7 0,-25.4 -3.12,-38.09 0,-15.24 3.12,-27.93 3.12,-41.9 -71.92,-3.81 -153.23,0 -228.28,0l-637.93 0c-18.76,0 -40.65,1.27 -34.4,-21.59 3.13,-17.77 25.02,-13.96 43.78,-13.96l634.81 0c78.18,0 159.48,2.54 234.53,0 9.38,-12.7 12.51,-24.13 21.89,-36.82l31.27 -29.21c-300.2,-3.8 -609.79,0 -909.99,0 -50.03,0 -87.56,8.89 -115.7,35.56 -71.93,69.83 -53.16,170.13 0,213.3 34.39,26.66 59.41,34.28 115.7,34.28 103.2,0 203.26,0 306.46,0l450.3 1.27c50.04,0 106.33,2.54 156.36,0z"/>
   <path class="fil1" d="M1606.85 4377.37l-6.25 7.61 -956.9 -2.54c-68.8,0 -109.45,6.35 -165.74,-27.93 -78.18,-50.79 -115.7,-168.87 -40.65,-262.82 25.01,-29.21 68.79,-59.68 128.21,-63.49 62.54,-2.54 131.34,0 193.88,0 268.93,0 544.12,2.54 813.05,0 21.89,0 21.89,5.08 40.66,1.27 43.78,-7.62 46.9,2.54 46.9,-52.05 -3.12,-21.59 -15.63,-15.24 -34.4,-15.24l-913.12 0c-140.72,0 -228.28,-11.43 -309.58,74.91 -106.32,114.27 -87.56,299.65 59.41,382.17 53.16,29.21 100.07,29.21 165.74,29.21l960.03 0c75.05,0 71.92,6.35 71.92,-24.13 -3.12,-52.05 -3.12,-40.63 -53.16,-46.97z"/>
   <path class="fil2" d="M2132.21 4448.47l656.69 0c56.29,0 90.69,-39.36 90.69,-95.23l0 -124.43 -841.2 0c0,34.28 -3.12,126.97 3.13,153.63 9.38,38.09 43.78,66.03 90.69,66.03z"/>
   <path class="fil0" d="M9505.97 4484.02l556.62 0c-3.12,-91.42 -34.39,-151.09 -81.3,-196.8 -112.58,-110.46 -284.57,-107.92 -394.02,0 -43.78,44.44 -78.18,106.65 -81.3,196.8z"/>
   <path class="fil2" d="M4099.17 4448.47l1250.85 0c3.13,-87.61 -9.38,-92.69 -84.43,-92.69l-1078.86 0c-71.93,0 -93.82,0 -87.56,92.69z"/>
   <path class="fil3" d="M7814.19 2396.66c-53.16,12.7 -43.78,55.87 -43.78,113.01 0,31.74 -3.12,130.77 3.13,154.9 9.38,52.05 68.8,40.63 112.58,40.63 31.27,0 131.34,3.81 156.35,-1.27 15.64,-5.08 31.27,-20.32 37.53,-38.09 3.12,-16.51 3.12,-217.12 0,-229.82 -12.51,-48.24 -62.54,-40.63 -112.58,-40.63 -31.27,0 -131.34,-3.8 -153.23,1.27z"/>
   <path class="fil1" d="M7817.32 2795.34c-53.16,8.89 -46.91,55.87 -46.91,109.2 0,36.82 -3.12,125.69 0,156.17 9.38,49.51 62.54,43.17 112.58,43.17 34.4,0 128.21,3.81 156.36,-1.27 46.9,-10.16 40.65,-62.22 40.65,-111.74 0,-35.55 6.25,-125.69 0,-154.9 -9.38,-52.05 -71.93,-41.9 -112.58,-41.9 -37.52,0 -118.83,-5.07 -150.1,1.27z"/>
   <path class="fil0" d="M7814.19 1999.25c-53.16,11.43 -43.78,57.14 -43.78,111.74 0,190.45 -21.89,196.8 115.71,196.8 31.27,0 131.34,3.81 156.35,-2.54 50.04,-11.43 37.53,-72.37 37.53,-113 0,-31.75 3.12,-129.51 0,-154.91 -12.51,-48.24 -62.54,-39.36 -112.58,-39.36 -34.4,0 -128.21,-5.07 -153.23,1.27z"/>
   <path class="fil2" d="M2266.67 2823.28c12.51,5.08 303.34,1.27 365.88,1.27 18.76,0 37.52,-2.54 37.52,15.23 6.26,29.21 -40.65,20.32 -81.3,20.32 -100.07,0 -225.15,-2.54 -322.1,0l3.13 60.94 609.79 1.27c3.13,-69.83 6.25,-121.89 -46.91,-149.82 -31.27,-16.51 -140.72,-10.16 -184.5,-10.16 -131.34,0 -262.67,-2.54 -390.89,1.27l9.38 59.68z"/>
   <path class="fil2" d="M9546.62 4447.2l475.32 0c-12.51,-106.66 -106.32,-196.8 -218.9,-204.42 0,17.77 3.13,40.63 -15.63,41.9 -25.02,1.27 -18.77,-22.86 -21.89,-40.63 -109.45,3.81 -206.39,97.76 -218.9,203.15z"/>
   <path class="fil3" d="M10681.76 3896.16l0 200.61c0,17.77 6.26,24.12 25.02,24.12l146.98 0c18.76,0 25.01,-5.08 25.01,-24.12l0 -200.61c0,-17.78 -9.38,-22.86 -25.01,-22.86l-146.98 0c-18.76,0 -25.02,5.08 -25.02,22.86z"/>
   <path class="fil2" d="M11094.55 3875.84c93.81,15.24 181.37,154.9 87.55,275.52 -12.5,19.05 -37.52,36.82 -59.41,46.98 -34.4,15.24 -31.27,-7.62 -28.14,86.34 109.44,-15.24 203.26,-118.08 203.26,-241.24 0,-124.43 -93.82,-229.81 -203.26,-245.05l0 77.45z"/>
   <path class="fil0" d="M4699.58 3385.74c-59.42,16.51 -87.56,71.11 -71.93,123.16 34.4,123.16 225.16,76.18 193.88,-50.78 -12.5,-45.71 -62.54,-88.88 -121.95,-72.38z"/>
   <path class="fil0" d="M1650.63 2621.4c-12.51,6.35 -25.02,53.32 -28.14,69.83 -9.38,24.12 -18.77,48.25 -25.02,72.37 -9.38,31.74 -134.47,398.68 -134.47,407.57 0,13.97 15.64,25.39 28.15,17.77 12.51,-6.34 46.9,-120.62 53.16,-142.2l125.08 -370.75c3.13,-8.88 9.39,-29.2 9.39,-36.82 0,-17.77 -12.51,-26.66 -28.15,-17.77z"/>
   <path class="fil1" d="M8398.96 2480.46c3.13,5.08 9.39,3.81 15.64,3.81 9.38,0 15.64,0 21.89,0 15.64,-85.07 56.29,-175.21 118.83,-229.81 6.25,-7.62 9.38,-12.7 18.76,-20.31 9.38,-7.62 15.64,-12.7 25.02,-20.32 50.03,-38.09 115.7,-68.56 181.37,-78.72l9.38 -2.54 0 -39.36c-43.77,1.27 -115.7,30.47 -146.97,46.98 -31.27,15.23 -62.54,36.82 -87.56,58.4 -6.25,5.08 -9.38,6.35 -12.51,11.43 -78.18,74.91 -128.21,157.44 -143.85,270.44z"/>
   <path class="fil1" d="M2251.04 3491.13c-109.45,26.66 -68.8,186.64 37.52,163.79 37.53,-8.89 75.06,-49.52 62.55,-100.31 -9.38,-39.36 -46.91,-76.18 -100.07,-63.48z"/>
   <path class="fil1" d="M8783.6 3007.38l0 -40.63c-165.74,-24.12 -322.09,-173.95 -343.98,-340.27l-40.66 0c18.77,69.83 12.51,73.64 46.91,142.2 59.42,115.54 197.01,222.19 337.73,238.7z"/>
   <path class="fil0" d="M1231.6 2903.27l128.21 -116.81c6.25,-3.81 9.38,-6.35 15.63,-10.16 6.26,-7.62 34.4,-30.47 34.4,-36.82 6.26,-15.24 -3.12,-26.67 -18.76,-26.67 -15.64,1.27 -75.05,62.22 -93.81,77.45 -3.13,5.08 -9.39,7.62 -12.51,12.7l-53.16 46.98c-9.39,7.62 -18.77,15.24 -25.02,22.85 -6.25,5.08 -25.02,17.78 -25.02,27.94 -3.12,15.23 12.51,24.12 18.77,29.2l78.17 69.83c9.38,8.89 100.07,90.15 106.33,92.69 15.63,5.08 53.16,-8.89 3.12,-48.25 -18.76,-15.24 -34.4,-31.74 -53.16,-45.71l-53.16 -48.25c-12.51,-13.96 -40.65,-31.74 -50.03,-46.97z"/>
   <path class="fil0" d="M1913.31 2902l-156.36 140.93c-3.12,3.81 -21.89,19.05 -21.89,24.13 -6.25,16.5 6.26,30.47 21.89,26.66l106.33 -92.69c9.38,-8.89 15.63,-12.69 25.01,-22.85l53.16 -45.71c31.27,-24.12 28.15,-35.55 0,-57.14l-143.84 -128.23c-9.39,-7.62 -31.28,-30.48 -40.66,-33.02 -15.63,-3.8 -28.14,7.62 -25.01,22.86 3.12,10.16 65.67,62.21 78.17,73.64l103.2 91.42z"/>
   <path class="fil3" d="M9271.43 2626.48l9.38 0 34.4 -1.27 0 267.9c0,11.43 -3.13,24.12 0,35.55 0,0 3.13,1.27 3.13,1.27l-3.13 -304.72 46.91 0 3.13 -140.94 -50.04 0 -34.4 0 -9.38 -1.27 0 -6.35 0 7.62 -50.03 0 0 140.94 50.03 1.27z"/>
   <path class="fil3" d="M4236.76 1352.99c-9.38,3.81 -12.51,12.69 -9.38,22.85 3.13,11.43 15.64,11.43 28.15,11.43 87.55,0 522.22,2.54 534.73,-2.54 9.38,-2.54 28.15,-33.01 -21.89,-33.01 -81.3,0 -522.23,-2.54 -531.61,1.27z"/>
   <polygon class="fil3" points="8783.6,2966.75 8783.6,3007.38 8783.6,3063.25 8924.32,3063.25 8927.45,3007.38 8927.45,2966.75 8924.32,2922.31 8783.6,2922.31 "/>
   <path class="fil1" d="M3764.57 1741.51l522.23 0c34.39,0 40.65,-35.55 0,-35.55l-522.23 0c-34.4,0 -34.4,35.55 0,35.55z"/>
   <path class="fil3" d="M8398.96 2626.48l40.66 0 43.78 -1.27 0 -140.94 -46.91 0c-6.25,0 -12.51,0 -21.89,0 -6.25,0 -12.51,1.27 -15.64,-3.81 -9.38,8.89 -43.78,3.81 -56.28,3.81l0 140.94 56.28 1.27z"/>
   <path class="fil3" d="M8789.85 2093.21l0 39.36 -9.38 2.54c15.64,-2.54 3.13,-1.27 9.38,2.54l0 40.63 140.73 0 0 -43.17 0 -40.63 0 -55.87 -140.73 -1.27 0 55.87z"/>
   <path class="fil1" d="M8927.45 2966.75l0 40.63c81.3,-8.89 168.86,-57.14 215.77,-95.23 100.07,-79.99 115.7,-148.55 137.59,-175.21l0 -110.46 -9.38 0c-6.25,39.36 -28.14,96.49 -43.78,126.96 -25.01,40.63 -46.9,69.84 -75.05,96.5 -46.91,48.25 -128.21,104.11 -225.15,116.81z"/>
   <path class="fil2" d="M7254.44 4353.24l228.28 0c25.01,0 43.78,-3.81 62.54,-15.23 15.64,-7.62 37.53,-24.13 40.65,-36.83l-434.67 0c12.51,30.48 62.54,52.06 103.2,52.06z"/>
   <path class="fil1" d="M8930.58 2135.11c168.86,24.12 315.83,175.22 340.85,341.54l0 6.35 9.38 1.27 0 -119.35c-9.38,-12.69 -18.76,-35.55 -28.14,-48.25 -62.54,-110.46 -193.88,-208.22 -322.09,-222.19l0 40.63z"/>
   <path class="fil0" d="M9280.81 2736.94l0 192.99c-21.89,8.89 -40.65,26.66 -34.4,57.14 3.13,24.12 21.89,44.43 50.04,45.7 28.14,1.27 46.91,-17.77 53.16,-41.9 6.25,-31.74 -12.51,-49.51 -31.27,-60.94 0,0 -3.13,-1.27 -3.13,-1.27 -3.13,-11.43 0,-24.12 0,-35.55l0 -267.9 -34.4 1.27 0 110.46z"/>
   <path class="fil0" d="M9280.81 2364.92l0 119.35 34.4 0 0 -294.56c62.54,-33.02 34.4,-104.12 -18.76,-104.12 -50.04,0 -78.18,74.91 -15.64,104.12l0 175.21z"/>
   <path class="fil3" d="M4117.93 856.54l481.58 0c31.27,0 34.4,-35.55 0,-35.55l-481.58 0c-34.4,0 -34.4,35.55 0,35.55z"/>
   <path class="fil2" d="M11094.55 4170.41c46.9,-10.16 93.81,-67.3 93.81,-126.97 0,-63.48 -43.78,-119.35 -93.81,-130.78l0 257.75z"/>
   <path class="fil1" d="M3764.57 1387.27l390.89 0c34.4,0 34.4,-35.55 0,-35.55l-390.89 0c-37.53,0 -34.4,35.55 0,35.55z"/>
   <path class="fil1" d="M3752.06 1176.5c-18.76,7.62 -15.64,27.93 0,33.01 9.38,1.27 162.61,0 178.24,0 34.4,0 225.16,3.81 240.79,-1.27 15.64,-3.81 15.64,-29.2 -3.12,-33.01l-415.91 1.27z"/>
   <path class="fil2" d="M4708.96 3420.03c-84.43,21.58 -50.04,143.47 31.27,124.42 28.14,-7.61 56.29,-39.36 43.78,-78.72 -6.26,-29.2 -37.53,-55.86 -75.05,-45.7z"/>
   <path class="fil1" d="M4449.41 645.78c-12.51,5.07 -15.64,21.58 -6.26,29.2 12.51,7.62 131.34,3.81 146.98,3.81 25.01,0 187.62,2.54 200.13,-1.27 12.51,-3.81 12.51,-21.59 3.13,-29.21 -9.38,-8.88 -128.21,-5.07 -146.97,-5.07 -25.02,0 -187.63,-2.54 -197.01,2.54z"/>
   <path class="fil1" d="M4239.89 1175.23c-15.64,3.81 -31.27,35.55 21.89,34.28 46.91,0 240.79,3.81 259.55,0 12.51,-2.54 18.76,-15.23 12.51,-26.66 -6.26,-10.16 -21.89,-8.89 -34.4,-8.89 -43.78,1.27 -243.91,-2.54 -259.55,1.27z"/>
   <path class="fil1" d="M3752.06 1529.47c-9.38,3.81 -18.76,13.97 -9.38,26.67 6.25,10.15 21.89,7.61 34.4,7.61 40.65,0 250.17,1.27 259.55,-1.27 9.38,-3.8 15.63,-15.23 9.38,-26.66 -6.26,-10.16 -21.89,-7.62 -37.53,-7.62 -37.52,0 -247.04,-1.27 -256.42,1.27z"/>
   <path class="fil3" d="M4105.42 1529.47c-9.38,3.81 -18.76,13.97 -9.38,26.67 6.26,10.15 21.89,7.61 34.4,7.61 40.65,0 253.3,1.27 259.55,-1.27 9.38,-3.8 15.64,-15.23 9.38,-26.66 -6.25,-8.89 -21.89,-7.62 -34.4,-7.62 -40.65,0 -250.17,-1.27 -259.55,1.27z"/>
   <path class="fil2" d="M2438.67 3458.12c-12.51,2.54 -18.77,13.96 -12.51,26.66 6.25,10.16 21.89,8.89 34.4,7.62l259.55 0c9.38,-2.54 18.76,-12.7 12.51,-26.67 -6.26,-10.15 -25.02,-7.61 -37.53,-7.61 -43.78,0 -240.79,-3.81 -256.42,0z"/>
   <path class="fil1" d="M3764.57 856.54l259.55 0c31.27,0 34.4,-35.55 0,-35.55l-259.55 0c-34.4,0 -34.4,35.55 0,35.55z"/>
   <path class="fil3" d="M3752.06 1883.71c-21.89,8.89 -18.76,34.28 15.63,34.28 34.4,0 215.78,1.27 225.16,-1.26 6.25,-3.81 12.51,-12.7 9.38,-22.86 -3.13,-11.43 -12.51,-11.43 -25.02,-11.43 -37.52,0 -215.77,-2.54 -225.15,1.27z"/>
   <path class="fil1" d="M4161.71 678.79l206.39 0c34.4,0 34.4,-35.55 0,-35.55l-206.39 0c-34.4,0 -34.4,35.55 0,35.55z"/>
   <path class="fil0" d="M2448.05 4287.22c-65.67,17.77 -37.53,115.54 28.14,96.49 59.42,-17.77 37.53,-114.27 -28.14,-96.49z"/>
   <path class="fil1" d="M4693.32 856.54l171.99 0c34.4,0 31.28,-35.55 0,-35.55l-171.99 0c-34.4,0 -34.4,35.55 0,35.55z"/>
   <path class="fil1" d="M4030.37 1033.03l168.87 0c34.4,0 34.4,-35.55 0,-35.55l-168.87 0c-37.52,0 -34.4,35.55 0,35.55z"/>
   <path class="fil2" d="M2435.54 3555.88c-18.76,6.35 -15.64,31.74 6.25,34.28l190.76 -1.27c18.76,-5.07 18.76,-31.74 -6.26,-34.28l-190.75 1.27z"/>
   <path class="fil3" d="M3748.93 998.75c-15.63,6.34 -15.63,31.74 9.38,34.28l190.76 -2.54c15.63,-5.08 15.63,-30.47 -6.26,-33.01l-193.88 1.27z"/>
   <path class="fil1" d="M4458.79 1529.47c-15.64,6.35 -15.64,24.13 -3.13,31.74 9.38,6.35 150.1,2.54 156.36,1.27 15.63,-3.8 15.63,-25.39 3.12,-31.74 -9.38,-5.08 -150.1,-2.54 -156.35,-1.27z"/>
   <path class="fil1" d="M3752.06 644.51c-12.51,5.07 -18.76,19.04 -6.26,29.2 6.26,8.89 28.15,5.08 40.66,5.08 18.76,0 84.43,2.54 93.81,-1.27 12.51,-2.54 18.76,-19.05 6.25,-29.21 -6.25,-7.61 -31.27,-5.07 -43.78,-5.07 -15.63,0 -81.3,-1.27 -90.68,1.27z"/>
   <path class="fil3" d="M3964.7 678.79l103.2 0c34.4,0 34.4,-35.55 0,-35.55l-103.2 0c-37.52,0 -37.52,35.55 0,35.55z"/>
   <polygon class="fil2" points="8824.25,2142.73 8896.18,2144 8896.18,2072.9 8824.25,2072.9 "/>
   <polygon class="fil2" points="8377.07,2589.66 8449,2590.93 8449,2519.82 8377.07,2519.82 "/>
   <path class="fil1" d="M7667.22 1495.19c-53.16,15.24 -28.15,92.69 25.01,74.91 46.91,-16.5 25.02,-90.14 -25.01,-74.91z"/>
   <path class="fil3" d="M3798.97 98.54c-50.04,19.05 -18.77,92.69 28.14,73.64 50.03,-20.31 21.89,-93.95 -28.14,-73.64z"/>
   <path class="fil0" d="M3533.16 98.54c-50.03,20.32 -18.76,91.42 28.14,73.64 50.04,-19.04 21.89,-93.95 -28.14,-73.64z"/>
   <path class="fil3" d="M7798.56 1495.19c-53.16,19.05 -25.02,91.42 25.01,74.91 46.91,-15.23 25.02,-91.41 -25.01,-74.91z"/>
   <path class="fil1" d="M3677.01 96c-56.29,8.89 -40.66,86.34 12.51,77.45 46.9,-7.61 37.52,-86.33 -12.51,-77.45z"/>
   <path class="fil2" d="M7532.75 1495.19c-50.03,16.51 -25.02,91.42 25.02,74.91 46.9,-13.96 25.02,-90.14 -25.02,-74.91z"/>
   <polygon class="fil2" points="8821.13,3028.96 8889.92,3028.96 8889.92,2957.86 8821.13,2957.86 "/>
   <polygon class="fil2" points="9258.92,2590.93 9327.72,2589.66 9327.72,2519.82 9258.92,2519.82 "/>
   <path class="fil1" d="M4271.16 1006.36c-3.13,35.56 28.14,26.67 59.42,26.67 18.76,0 65.67,7.62 71.92,-12.7 6.25,-33.01 -53.16,-22.85 -100.07,-22.85 -21.89,0 -18.76,-1.27 -31.27,8.88z"/>
   <path class="fil2" d="M2448.05 3687.93l84.43 0c31.27,0 34.4,-35.55 0,-35.55l-84.43 0c-12.51,0 -21.89,2.54 -25.02,17.77 0,13.97 12.51,17.78 25.02,17.78z"/>
  </g>
 </g>
</svg>
