<?xml version="1.0" encoding="UTF-8"?>
<!DOCTYPE svg PUBLIC "-//W3C//DTD SVG 1.1//EN" "http://www.w3.org/Graphics/SVG/1.1/DTD/svg11.dtd">
<!-- Creator: CorelDRAW 2020 (64-Bit) -->
<svg xmlns="http://www.w3.org/2000/svg" xml:space="preserve" width="659.694mm" height="267.758mm" version="1.1" style="shape-rendering:geometricPrecision; text-rendering:geometricPrecision; image-rendering:optimizeQuality; fill-rule:evenodd; clip-rule:evenodd"
viewBox="0 0 65969.44 26775.82"
 xmlns:xlink="http://www.w3.org/1999/xlink"
 xmlns:xodm="http://www.corel.com/coreldraw/odm/2003">
 <defs>
  <style type="text/css">
   <![CDATA[
    .fil0 {fill:#141C3B}
    .fil5 {fill:#343B54}
    .fil3 {fill:#5BE8B9}
    .fil1 {fill:#6D07F3}
    .fil4 {fill:#8F92A1}
    .fil2 {fill:#FEFEFE}
   ]]>
  </style>
 </defs>
 <g id="Layer_x0020_1">
  <metadata id="CorelCorpID_0Corel-Layer"/>
  <path class="fil0" d="M29844.53 -0.02l-10901.85 0c-37.4,22.77 -112.2,30.36 -168.3,60.72 -168.3,68.32 -280.49,182.18 -336.59,364.36 -74.8,174.59 -37.4,698.35 -37.4,910.89 0,630.03 0,1260.06 0,1890.09 -1570.77,0 -3122.83,0 -4693.6,0 -205.69,0 -317.89,0 -504.88,75.9 -130.9,60.73 -261.8,167 -317.9,258.09 -224.39,303.63 -186.99,584.48 -186.99,994.38l0 11697.31 -1047.18 0c-18.7,-15.18 0,0 -18.7,-37.95 -112.2,-417.49 -261.79,-781.85 -504.89,-1146.2 -186.99,-288.45 -336.59,-478.22 -560.99,-713.53 -18.7,-15.18 -37.39,-30.36 -56.09,-53.13 -18.7,-22.78 -37.4,-30.37 -56.1,-53.14 -18.7,-15.18 -37.4,-30.36 -56.1,-45.54l-168.3 -151.82c-280.49,-235.31 -579.69,-417.49 -934.98,-569.3 -392.69,-174.59 -860.18,-303.63 -1346.37,-341.59 -953.68,-68.31 -1944.75,189.77 -2692.74,713.53l-355.29 280.86c-37.4,15.18 -37.4,30.36 -56.1,53.13 -37.4,15.19 -37.4,15.19 -56.1,45.55 -74.8,68.32 -186.99,166.99 -280.49,273.27l-130.9 166.99c-878.88,1062.7 -1178.07,2626.39 -710.58,3969.95 224.39,660.39 542.29,1123.43 991.08,1586.46 710.58,736.3 1795.16,1252.47 3010.63,1237.29 747.98,-15.18 1402.47,-204.95 2019.55,-554.12 168.3,-98.68 467.49,-318.81 504.89,-333.99 0,136.63 0,349.17 0,493.39l0 4440.58c0,311.22 -37.4,637.62 112.2,888.11 93.5,182.18 317.89,356.77 635.79,356.77 317.89,7.59 654.48,0 972.37,0l2973.24 0c317.89,0 523.59,-159.41 635.78,-341.59 168.3,-250.49 112.2,-546.53 112.2,-872.93l18.7 -2967.97 8732.71 0 -243.1 3203.28c-261.79,15.18 -560.99,0 -841.48,0 -261.79,0 -467.49,-37.95 -673.19,151.82 -149.59,159.4 -149.59,402.31 -130.89,683.16 0,68.32 37.4,106.27 74.8,129.05 56.09,22.77 149.59,15.18 205.69,15.18l7386.34 0c149.59,0 243.09,0 243.09,-151.82 18.7,-349.17 18.7,-614.85 -261.79,-774.25 -37.4,-22.77 -93.5,-37.96 -149.6,-45.55 -130.9,-22.77 -1047.18,-7.59 -1215.47,-7.59 -18.7,-113.86 -37.4,-280.85 -37.4,-402.31 -18.7,-265.67 -224.4,-2732.66 -205.7,-2800.97l3852.12 0c18.7,60.72 0,311.22 0,394.71 0,265.68 0,1799.01 18.7,1958.41 56.1,326.4 224.39,425.08 261.79,508.58l-1327.67 0c-168.3,0 -280.49,-22.77 -299.19,151.81 0,144.23 0,296.04 0,447.86 0,144.22 18.7,250.49 74.8,364.35 224.39,409.9 579.68,356.77 991.07,356.77l19073.58 0c186.99,0 1626.86,15.18 1776.46,0 243.09,-30.37 430.09,-197.36 523.59,-364.36 56.09,-121.45 56.09,-235.31 56.09,-387.13 0,-546.53 74.8,-569.3 -299.19,-569.3 -224.39,0 -1196.77,7.59 -1327.67,-7.59 280.5,-273.27 280.5,-440.26 280.5,-941.25l0 -2444.21c0,-394.72 -18.7,-812.21 0,-1214.52 93.49,-7.59 3178.92,0 3384.62,0 392.69,0 654.48,30.36 916.28,-197.36 93.5,-75.91 186.99,-174.59 243.09,-326.4 74.8,-167 56.1,-296.04 56.1,-493.4l0 -10687.74c0,-174.59 -18.7,-318.81 -93.5,-455.44 -130.89,-212.54 -336.59,-409.9 -691.88,-432.67 -168.3,-15.19 -373.99,-7.6 -560.99,-7.6l-12360.42 0c-187,0 -317.89,0 -486.19,68.32 -243.1,106.27 -448.79,318.81 -504.89,630.03 -18.7,151.82 -18.7,379.54 -18.7,546.53l0 2808.57 -1888.66 -7.59 0 -7059.37c0,-379.54 0,-797.03 -18.7,-1176.57 0,-349.17 -224.39,-599.66 -448.79,-713.52 -149.59,-83.5 -299.19,-98.68 -486.19,-98.68l-8826.2 0c0,-630.03 0,-1260.06 0,-1897.68 0,-220.14 37.4,-728.71 -37.4,-910.89 -56.1,-174.59 -186.99,-296.04 -336.59,-364.36 -56.1,-22.77 -149.6,-37.95 -187,-53.13z"/>
  <path class="fil1" d="M14361.28 16251.72c168.3,-7.59 336.59,0 486.19,0 149.6,0 280.49,22.77 411.39,83.5 168.3,106.27 355.29,296.04 373.99,592.08 18.7,144.22 18.7,1783.82 18.7,1943.22l16736.13 0c0,-1055.11 0,-2110.22 0,-3165.33l0 -2375.9c0,-280.85 0,-455.44 149.59,-660.39 93.5,-144.22 224.4,-273.27 430.09,-341.58 205.7,-68.32 542.29,-45.55 747.99,-45.55l3178.93 0c523.58,0 1065.87,15.18 1589.46,0l0 -6778.52c0,-166.99 18.7,-288.44 -56.1,-425.08 -56.1,-91.09 -149.59,-174.58 -280.49,-197.36 -112.2,-22.77 -355.29,-7.59 -486.19,-7.59l-7255.44 0c18.7,1229.7 0,2466.99 0,3704.28l0 4167.31c0,129.04 18.7,326.4 0,447.85 -56.1,242.9 -224.39,425.08 -448.79,493.4 -168.29,45.54 -691.88,22.77 -897.58,22.77l-9742.48 0c-149.6,0 -317.89,15.18 -448.79,-22.77 -224.4,-60.73 -411.39,-235.32 -448.79,-470.63 -37.4,-129.04 -18.7,-751.48 -18.7,-918.48 0,-2482.16 -18.7,-4956.74 0,-7431.32 -74.8,15.18 -3066.73,7.59 -3384.63,7.59 -149.59,0 -299.19,-22.77 -411.39,45.55 -112.19,53.13 -186.99,144.22 -224.39,273.26 -18.7,98.68 0,341.59 0,463.04l0 8668.61c0,151.81 0,1829.36 -18.7,1928.04z"/>
  <path class="fil2" d="M42298.46 20054.68c0,204.95 205.69,455.44 430.09,531.35 168.29,53.13 710.58,30.36 934.98,30.36l11575.04 0c224.39,0 747.98,30.36 934.98,-37.95 130.89,-45.55 205.69,-113.87 280.49,-197.36 56.1,-68.32 130.9,-235.32 130.9,-356.77l0 -10042.53 -14286.48 0 0 7552.77c0,842.58 0,1685.15 0,2520.13z"/>
  <path class="fil3" d="M51311.65 20828.93c-691.88,-15.18 -1383.76,0 -2075.65,0l-6208.26 0c-373.99,0 -542.29,-83.5 -729.28,-288.45 -74.8,-68.31 -149.6,-212.54 -187,-333.99 -37.4,-159.41 -37.4,-326.4 -37.4,-485.81l0 -5169.28c0,-333.99 0,-690.76 0,-1024.75l-8377.41 0c-168.3,0 -430.09,-45.54 -430.09,220.13 0,432.67 0,865.35 0,1298.02l0 9040.55c0,265.68 37.4,341.58 299.19,341.58l17446.71 0c261.8,0 299.19,-98.68 299.19,-356.76l0 -2914.84c0,-98.68 -18.69,-235.31 0,-326.4z"/>
  <polygon class="fil2" points="32387.68,18870.52 15651.55,18870.52 15651.55,22362.26 32387.68,22362.26 "/>
  <path class="fil3" d="M7367.64 13344.47c-860.19,60.73 -1682.97,387.13 -2300.05,918.48 -130.9,113.86 -205.7,182.18 -317.9,303.63l-168.29 189.77c-841.48,1009.57 -1140.68,2330.35 -785.38,3628.37 112.19,394.71 261.79,690.75 467.48,1024.74 149.6,265.68 523.59,690.76 747.99,865.35 205.69,166.99 224.39,204.95 486.19,371.94 916.28,584.49 2131.75,766.67 3197.63,455.45 598.38,-182.18 1140.67,-470.63 1589.46,-888.12l130.9 -121.45c785.38,-789.44 1215.47,-1882.5 1140.67,-3043.88 -56.1,-789.44 -336.59,-1571.28 -804.08,-2155.77 -74.8,-91.09 -149.6,-189.77 -224.39,-265.67 -37.4,-37.96 -74.8,-83.5 -112.2,-129.05 -93.5,-91.08 -299.2,-273.26 -411.39,-349.17 -747.99,-561.71 -1645.57,-865.34 -2636.64,-804.62z"/>
  <path class="fil2" d="M51311.65 20828.93c-18.69,91.09 0,227.72 0,326.4l0 2914.84c0,258.08 -37.39,356.76 -299.19,356.76l-17446.71 0c-261.79,0 -299.19,-75.9 -299.19,-341.58l0 -9040.55c0,-432.67 0,-865.35 0,-1298.02 0,-265.67 261.79,-220.13 430.09,-220.13l8377.41 0c0,-151.81 18.7,-971.61 0,-1032.34l-8695.31 0c-243.09,0 -411.39,15.18 -560.98,151.82 -149.6,144.22 -205.7,288.44 -205.7,508.58l0 11598.62c0,197.36 56.1,402.31 205.7,516.17 186.99,144.23 280.49,167 560.98,167l17409.32 0c430.09,0 897.58,91.09 1121.97,-333.99 93.5,-197.36 74.8,-402.31 74.8,-645.21l0 -2899.66c0,-227.72 18.7,-508.58 0,-728.71l-673.19 0z"/>
  <path class="fil0" d="M65972.13 24313.07l0 -417.49 -74.8 -296.04c-74.8,-235.31 -205.7,-447.85 -355.29,-630.03l-243.1 -212.54c-205.69,-151.81 -486.19,-288.44 -747.98,-318.81 0,-235.31 0,-463.03 0,-698.34 0,-318.81 -205.7,-273.27 -411.39,-273.27 -448.79,0 -916.28,0 -1365.07,0 -18.7,-7.59 -37.4,-37.95 -56.1,-75.91 -112.2,-197.36 -317.89,-326.4 -542.29,-326.4 -149.59,0 -280.49,53.14 -373.99,129.04 -74.8,37.96 -93.5,60.73 -130.9,121.46 -37.4,45.54 -93.49,144.22 -93.49,151.81 -560.99,0 -1103.28,0 -1645.57,0 -355.29,0 -299.19,189.77 -299.19,523.76l0 4098.99c0,265.68 112.2,447.86 261.79,554.13 224.4,144.22 411.39,113.86 710.59,113.86l3291.12 0c261.8,0 430.09,-121.46 542.29,-273.27 168.3,-258.08 93.5,-470.62 112.2,-698.35 280.49,-45.54 560.99,-166.99 766.68,-326.4 205.7,-166.99 355.29,-341.58 486.19,-599.66 149.6,-288.45 149.6,-500.99 168.3,-546.54z"/>
  <path class="fil0" d="M-0 24988.65l0 227.72c18.7,45.54 18.7,129.04 37.4,182.18 130.9,781.84 804.08,1358.74 1664.26,1358.74l6021.27 0c224.39,0 542.29,60.72 598.38,-204.95 18.7,-60.73 18.7,-318.81 0,-379.54 -18.7,-106.27 -93.49,-182.18 -186.99,-220.13 -130.9,-60.73 -1140.68,0 -1103.28,-888.12 37.4,-865.34 953.68,-774.25 1140.68,-872.93 74.8,-37.95 149.59,-121.45 168.29,-235.31 0,-91.09 0,-303.63 -18.7,-379.54 -37.39,-83.5 -130.89,-151.81 -243.09,-151.81 -261.79,-15.18 -542.29,0 -804.08,0l-4020.41 0c-542.29,0 -1084.58,-15.18 -1608.17,0 -243.09,7.59 -467.49,53.13 -654.48,144.22 -93.5,37.96 -187,91.09 -261.8,144.23 -186.99,121.45 -149.59,121.45 -280.49,227.72l-130.9 166.99c-112.19,167 -205.69,341.59 -261.79,546.54l-56.1 296.03 0 37.96z"/>
  <path class="fil2" d="M30405.52 4873.22l7255.44 0c130.9,0 373.99,-15.18 486.19,7.59 130.9,22.78 224.39,106.27 280.49,197.36 74.8,136.64 56.1,258.09 56.1,425.08l0 6778.52 1477.27 0 0 -8046.17c0,-212.54 0,-326.4 -93.5,-485.8 -56.1,-113.86 -168.3,-212.54 -299.19,-265.68 -168.3,-60.72 -355.3,-45.54 -523.59,-45.54 -2879.74,0 -5759.47,0 -8639.21,0l0 1434.64z"/>
  <path class="fil2" d="M14361.28 16251.72c18.7,-98.68 18.7,-1776.23 18.7,-1928.04l0 -8668.61c0,-121.45 -18.7,-364.36 0,-463.04 37.4,-129.04 112.2,-220.13 224.39,-273.26 112.2,-68.32 261.8,-45.55 411.39,-45.55 317.9,0 3309.83,7.59 3384.63,-7.59l0 -1419.46c-93.5,-15.18 -4544,-7.59 -4581.4,-7.59 -317.89,0 -617.08,-30.37 -822.78,318.81 -93.5,151.81 -74.8,280.85 -74.8,478.21 0,850.16 -18.7,11940.21 0,12016.12l1439.87 0z"/>
  <path class="fil2" d="M48656.31 14794.3l280.5 0 0 850.16 -261.8 0c112.2,637.62 467.49,1191.75 972.38,1578.87 299.2,212.55 691.89,409.9 1084.58,455.45l0 -258.09c37.4,-7.59 804.08,-7.59 860.18,0l0 258.09c373.99,-45.55 766.68,-242.9 1065.87,-455.45 504.89,-356.76 897.58,-964.02 991.08,-1586.46l0 7.59 -299.19 0 18.7 -850.16 280.49 0c-18.7,-258.08 -149.59,-576.89 -243.09,-781.84 -74.8,-121.45 -130.9,-212.54 -205.7,-318.81 -355.29,-478.22 -972.38,-903.3 -1589.46,-986.8l0 258.09 -841.48 0 -18.7 -265.68c-261.8,30.37 -579.69,151.82 -785.39,258.09 -243.09,136.63 -430.09,288.44 -598.38,447.85 -355.29,356.76 -635.79,872.93 -710.59,1389.1z"/>
  <path class="fil2" d="M64345.26 21679.09l-1570.76 0 0 1214.52c243.09,22.77 523.59,-83.5 654.48,166.99 56.1,121.45 37.4,645.21 37.4,812.21 0,144.22 0,288.45 0,425.08 0,144.23 18.7,258.09 -56.1,364.36 -56.09,83.49 -149.59,136.63 -299.19,136.63l-841.48 0c-149.6,0 -243.09,-22.77 -317.89,-106.27 -93.5,-106.27 -74.8,-189.77 -74.8,-349.17 0,-235.32 -18.7,-1146.2 18.7,-1252.47 37.4,-91.09 130.9,-167 243.09,-189.77 93.5,-22.77 299.2,-7.59 411.39,-7.59l0 -1214.52 -2711.44 0c-18.7,144.22 0,3415.83 0,3552.46 0,296.04 0,592.08 0,888.12 0,151.81 56.1,220.13 130.9,311.22 74.8,91.08 224.4,113.86 336.59,113.86l3552.92 0c280.5,0 467.49,-151.82 486.19,-417.49 0,-288.45 0,-592.08 0,-888.12l0 -3112.2c0,-144.22 0,-318.81 0,-447.85z"/>
  <path class="fil2" d="M53331.21 25649.04l-9499.39 0c-74.8,167 -224.39,318.81 -373.99,409.9 -56.1,37.95 -112.2,60.73 -187,83.5 -224.39,75.91 -729.28,45.54 -991.07,45.54 -654.49,0 -1252.88,113.86 -1552.07,-538.94l-9461.99 0c-18.7,121.45 0,242.9 0,371.95 0,204.95 37.4,387.12 243.1,485.8 112.19,45.55 205.69,37.96 336.59,37.96l20887.43 0c112.2,0 224.4,7.59 336.6,-37.96 317.89,-144.22 261.79,-508.58 261.79,-857.75z"/>
  <path class="fil2" d="M24346.86 25778.08l4207.4 0 -243.09 -3203.28 -3702.52 0c-18.7,68.31 -56.1,683.16 -74.8,804.61l-130.89 1594.06c0,113.86 -56.1,751.48 -56.1,804.61z"/>
  <path class="fil2" d="M18606.08 1244.86l11593.75 0c0,-144.23 0,-280.86 0,-425.08 0,-136.64 18.7,-258.09 -37.4,-371.95 -130.9,-258.08 -373.99,-235.31 -635.79,-235.31l-10247.37 0c-224.4,0 -486.19,-37.96 -617.09,220.13 -74.79,129.04 -56.1,227.72 -56.1,379.54 0,144.22 0,288.44 0,432.67z"/>
  <path class="fil2" d="M7236.74 25952.67c-37.4,-30.36 -56.1,-53.14 -93.5,-83.5 -93.5,-75.91 -205.69,-220.13 -243.09,-326.4 -1720.37,7.59 -3459.43,0 -5198.49,0 -93.5,0 -243.09,22.77 -261.79,-68.32 -18.7,-60.72 0,-106.27 37.4,-129.04 37.4,-30.36 430.09,-15.18 486.19,-15.18 1626.86,0 3253.72,0 4861.89,0 18.7,-45.54 -18.7,-174.59 -18.7,-235.31 0,-83.5 18.7,-167 18.7,-242.91l-5179.79 0c-56.1,0 -243.09,22.78 -205.69,-136.63 18.7,-98.68 149.59,-75.91 261.79,-75.91l3814.72 0c448.79,0 916.28,-7.59 1383.77,0 18.7,-91.08 149.59,-250.49 224.39,-311.22l93.5 -83.49 -5460.28 0c-149.6,0 -261.79,0 -392.69,45.54 -187,60.73 -299.19,159.41 -411.39,296.04 -93.5,136.63 -168.3,333.99 -168.3,516.17 18.7,197.36 112.2,447.85 243.1,561.71 18.7,22.77 37.4,45.55 56.1,60.73 186.99,166.99 355.29,212.54 691.88,212.54 617.09,0 1215.47,0 1813.86,0l2748.84 7.59c299.19,0 598.39,15.18 897.58,7.59z"/>
  <path class="fil1" d="M7797.73 26112.07c0,22.78 0,45.55 -18.7,53.14l-5740.78 -15.18c-411.39,0 -673.18,22.77 -972.37,-174.59 -205.7,-129.04 -411.39,-371.94 -467.49,-690.75 -37.4,-182.18 -18.7,-349.18 37.4,-516.17 130.89,-417.49 523.58,-721.12 972.37,-736.3 374,-15.19 766.69,0 1159.38,0l4955.39 0c56.1,7.59 0,15.18 56.1,22.77 0,0 93.49,-15.18 112.19,-22.77 93.5,-7.59 187,0 224.4,-68.32 18.7,-37.95 18.7,-227.72 18.7,-273.27 -18.7,-75.9 -112.2,-53.13 -243.1,-53.13l-6021.26 0c-392.69,0 -598.39,7.59 -953.68,204.95 -673.19,379.53 -897.58,1290.42 -504.89,1973.59 130.9,235.31 317.89,425.08 579.69,561.71 317.89,174.59 579.68,167 972.38,167 1926.05,0 3852.11,0 5759.47,0 467.49,0 411.39,30.36 411.39,-182.18 0,-235.31 0,-212.54 -336.59,-250.5z"/>
  <path class="fil2" d="M10396.97 25990.62c0,318.81 224.39,554.13 542.29,554.13l3945.61 0c317.89,0 542.29,-235.32 542.29,-554.13l0 -759.07 -5030.19 0 0 759.07z"/>
  <path class="fil0" d="M55051.57 26757.29l3328.53 0c0,-258.09 -37.4,-470.63 -149.6,-683.17 -56.1,-129.04 -130.9,-280.86 -224.39,-379.54 -112.2,-129.04 -187,-197.35 -336.6,-303.62 -74.8,-60.73 -168.29,-98.68 -261.79,-151.82 -504.89,-242.9 -1178.08,-174.59 -1645.56,151.82 -149.6,113.86 -187,151.81 -317.9,288.44 -261.79,296.04 -373.99,675.58 -392.69,1077.89z"/>
  <path class="fil2" d="M22701.29 26544.75l7498.54 0c0,-182.18 18.7,-341.59 -74.8,-463.04 -93.5,-113.86 -261.8,-91.09 -448.79,-91.09l-6451.36 0c-168.29,0 -355.29,-22.77 -448.79,83.5 -93.5,113.86 -74.8,288.45 -74.8,470.63z"/>
  <path class="fil3" d="M44935.1 14270.54c-112.2,22.77 -205.7,106.27 -243.1,220.13 -37.4,83.5 -18.7,766.67 -18.7,910.89 0,113.86 -18.7,364.36 0,463.04 74.8,318.81 430.09,250.49 673.19,250.49 149.59,0 841.48,15.18 916.28,0 336.59,-68.32 261.79,-417.49 261.79,-675.58 0,-144.22 18.7,-834.98 0,-918.47 -56.1,-318.81 -411.39,-258.09 -673.18,-258.09 -130.9,0 -841.48,-7.59 -916.28,7.59z"/>
  <path class="fil0" d="M44916.4 11894.65c-299.2,68.31 -243.1,394.71 -243.1,675.57 0,144.22 0,834.98 18.7,918.48 56.1,311.22 392.69,250.49 673.19,250.49 149.59,0 841.48,7.59 916.28,-15.18 317.89,-68.32 243.09,-409.9 243.09,-675.57 0,-144.23 18.7,-834.98 0,-918.48 -37.4,-121.45 -112.2,-204.95 -224.39,-235.31 -93.5,-22.78 -766.69,-15.19 -916.28,-15.19 -112.2,0 -373.99,-7.59 -467.49,15.19z"/>
  <path class="fil1" d="M44953.8 16646.44c-336.6,45.54 -280.5,409.9 -280.5,652.8 0,151.82 0,827.39 0,918.48 18.7,129.04 112.2,220.13 205.7,258.08 93.5,37.96 747.98,22.78 916.28,22.78 280.49,0 617.08,68.31 710.58,-204.95 37.4,-91.09 18.7,-751.48 18.7,-903.3 0,-280.86 74.8,-622.44 -205.69,-721.12 -93.5,-37.95 -747.99,-22.77 -897.58,-22.77 -130.9,0 -355.3,-7.59 -467.49,0z"/>
  <path class="fil2" d="M11762.04 16836.21c186.99,-15.18 411.39,0 617.08,0l1570.77 0c93.5,0 224.39,-22.77 243.09,91.09 0,113.86 -112.19,113.86 -205.69,113.86l-953.68 0c-411.39,0 -841.48,-7.59 -1271.57,7.59l18.7 364.35 3646.42 0c0,-121.45 18.7,-455.44 -18.7,-561.71 -37.4,-159.41 -149.6,-265.68 -261.8,-326.4 -149.59,-83.5 -336.59,-60.73 -523.59,-60.73 -766.68,0 -1552.06,0 -2337.44,0 -187,0 -411.4,-15.18 -598.39,0l74.8 371.95z"/>
  <path class="fil2" d="M56603.64 25315.05c-654.49,37.95 -1234.18,592.08 -1308.97,1222.11l2842.33 0c-56.1,-478.22 -392.69,-895.71 -804.08,-1093.07 -130.9,-53.13 -355.29,-129.04 -504.89,-121.45 0,106.27 18.7,242.9 -112.2,242.9 -130.89,0 -112.19,-136.63 -112.19,-250.49z"/>
  <path class="fil3" d="M62157.41 23113.74c-93.5,30.36 -74.8,129.04 -74.8,265.67l0 986.8c0,265.67 18.7,220.13 448.79,220.13 785.39,0 729.29,60.72 729.29,-273.27l0 -986.79c0,-265.68 -18.7,-220.13 -448.79,-220.13 -93.5,0 -598.39,-7.59 -654.49,7.59z"/>
  <path class="fil2" d="M64550.96 23113.74c224.39,45.54 430.09,220.13 542.29,341.58 467.49,569.31 186.99,1465.01 -542.29,1654.78l0 455.44c299.19,-37.95 654.48,-242.9 860.18,-478.21 187,-227.72 355.29,-561.72 355.29,-971.62 0,-485.8 -224.39,-888.11 -523.59,-1138.6 -186.99,-151.82 -448.79,-288.45 -691.88,-326.41l0 463.04z"/>
  <path class="fil0" d="M26385.11 20168.54c-299.19,37.95 -560.99,311.22 -523.59,660.39 37.4,303.63 317.9,569.3 654.49,523.76 299.19,-37.95 579.69,-303.63 523.59,-652.8 -37.4,-303.63 -299.2,-569.31 -654.49,-531.35z"/>
  <path class="fil0" d="M8096.92 15606.51c-74.8,30.36 -74.8,83.5 -112.2,174.59l-953.68 2892.06c-18.7,45.55 -74.8,182.18 -74.8,227.73 0,83.49 74.8,144.22 149.6,113.86 74.8,-22.78 93.5,-98.68 112.2,-174.59l972.38 -2892.07c0,-45.54 56.1,-182.17 56.1,-227.72 18.7,-83.5 -56.1,-151.81 -149.6,-113.86z"/>
  <path class="fil1" d="M11705.94 20806.16c-261.8,45.54 -467.49,273.26 -430.09,576.89 37.4,250.5 280.49,463.04 579.69,417.49 243.09,-37.95 467.48,-273.26 411.39,-569.3 -37.4,-250.5 -261.8,-470.63 -560.99,-425.08z"/>
  <path class="fil1" d="M48431.92 14763.94l0 30.36 224.39 0c74.8,-516.17 355.3,-1032.34 710.59,-1389.1 168.29,-159.41 355.29,-311.22 598.38,-447.85 205.7,-106.27 523.59,-227.72 785.39,-258.09 18.7,-53.13 18.7,-174.58 18.7,-242.9 -280.5,22.77 -673.19,167 -878.88,280.86 -205.7,106.27 -355.3,204.95 -523.59,349.17 -74.8,68.32 -74.8,75.91 -149.6,136.63 -392.69,379.54 -710.58,956.43 -785.38,1540.92z"/>
  <path class="fil1" d="M50731.97 17921.68c0,-53.13 0,-197.36 0,-242.9 -392.69,-45.55 -785.38,-242.9 -1084.58,-455.45 -504.89,-387.12 -860.18,-941.25 -972.38,-1578.87l-243.09 0c74.8,569.31 392.69,1131.02 785.38,1510.56 149.6,151.81 392.69,356.76 654.49,485.8 186.99,98.68 598.38,273.27 860.18,280.86z"/>
  <path class="fil0" d="M9648.98 17299.24c-18.69,37.96 -37.39,45.55 -74.79,68.32l-149.6 144.22c-18.7,15.18 -18.7,22.77 -37.4,37.96l-205.69 174.58c0,7.59 -18.7,15.18 -37.4,30.37l-355.3 311.22c-56.09,53.13 -205.69,174.58 -224.39,227.72 -18.7,91.09 56.1,166.99 149.6,144.22 56.09,-7.59 392.69,-333.99 486.18,-402.31l617.09 -561.71c37.4,-37.95 130.9,-91.09 130.9,-167 0,-68.31 -56.1,-113.86 -130.9,-166.99 -18.7,-22.78 -37.4,-45.55 -74.8,-68.32l-542.29 -493.4c-37.39,-30.36 -56.09,-37.95 -74.79,-68.31 -93.5,-75.91 -261.8,-212.54 -317.9,-280.86 -168.29,-167 -336.59,30.36 -186.99,159.41l243.09 212.54c74.8,60.72 243.1,212.54 317.9,280.85l317.89 273.27c18.7,30.36 37.4,45.54 74.8,68.31 37.4,30.37 37.4,53.14 74.79,75.91z"/>
  <path class="fil0" d="M5572.48 17306.83c18.7,-30.36 37.39,-45.54 74.79,-68.31l149.6 -136.64c93.5,-98.68 317.89,-288.44 392.69,-356.76 74.8,-68.32 224.4,-197.36 317.89,-280.86 18.7,-30.36 130.9,-98.68 149.6,-144.22 18.7,-98.68 -56.1,-174.59 -149.6,-151.82 -56.09,7.59 -542.28,463.04 -635.78,546.54 -93.5,68.31 -280.49,265.67 -392.69,341.58l-149.6 144.22c-37.4,22.77 -56.1,45.55 -56.1,98.68 0,75.91 56.1,106.27 112.2,167l317.89 280.86c93.5,75.9 243.1,197.35 317.9,280.85 93.49,98.68 299.19,258.09 392.69,349.18 168.29,166.99 336.59,-22.78 168.29,-159.41 -93.49,-91.09 -299.19,-280.86 -392.69,-349.17 -18.7,-22.78 -37.4,-45.55 -74.8,-68.32l-542.28 -493.4z"/>
  <path class="fil3" d="M53705.2 14794.3l-56.1 0 -280.49 0 -18.7 850.16 299.19 0 261.8 0 299.19 0 0 -850.16 -299.19 0 0 -1761.05c-18.7,45.55 0,1571.28 0,1761.05l-205.7 0z"/>
  <path class="fil1" d="M20644.34 10141.19c-93.5,22.77 -149.6,204.95 74.8,204.95 317.89,0 3141.53,15.18 3197.63,0 56.09,-15.18 112.19,-75.91 74.79,-136.64 -18.7,-68.31 -74.79,-75.9 -149.59,-75.9 -299.2,7.59 -3141.53,-7.59 -3197.63,7.59z"/>
  <path class="fil3" d="M50731.97 17678.78c0,45.54 0,189.77 0,242.9l0 333.99 860.18 7.59 0 -341.58 0 -242.9 0 -258.09c-56.1,-7.59 -822.78,-7.59 -860.18,0l0 258.09z"/>
  <path class="fil2" d="M43570.03 25656.63l-2599.24 0c18.7,60.73 149.59,167 205.69,204.95 74.8,53.14 168.3,91.09 299.19,106.27 93.5,15.18 1514.67,15.18 1608.17,0 168.29,-22.77 299.19,-91.09 411.39,-197.36 18.7,-22.77 74.8,-83.5 74.8,-113.86z"/>
  <path class="fil3" d="M23561.47 8023.38c-56.09,15.18 -112.19,68.31 -74.79,144.22 18.7,68.32 93.49,60.72 168.29,60.72l2281.35 0c130.9,0 822.78,22.78 916.28,0 37.4,-15.18 74.8,-75.9 56.1,-144.22 -18.7,-60.72 -93.5,-68.32 -168.3,-68.32 -299.19,7.6 -3122.83,-7.59 -3178.93,7.6z"/>
  <path class="fil3" d="M48431.92 15644.46l243.09 0 261.8 0 0 -850.16 -280.5 0 -224.39 0 0 -30.36c-18.7,53.13 0,15.18 -18.7,30.36l-317.89 0 0 850.16 336.59 0z"/>
  <path class="fil3" d="M50769.37 12456.36c0,68.32 0,189.77 -18.7,242.9l18.7 265.68 841.48 0 0 -258.09 0 -242.9 0 -341.58 -841.48 0 0 333.99z"/>
  <path class="fil1" d="M51592.15 17678.78l0 242.9c224.39,-15.18 523.59,-129.04 710.58,-212.54 224.4,-91.09 430.09,-235.31 579.69,-356.76 336.59,-273.27 598.39,-576.9 822.78,-1062.7l0 -645.22 -56.1 -7.59c-93.5,622.44 -486.19,1229.7 -991.08,1586.46 -299.19,212.55 -691.88,409.9 -1065.87,455.45z"/>
  <path class="fil1" d="M51610.85 12706.85c617.08,83.5 1234.17,508.58 1589.46,986.8 74.8,106.27 130.9,197.36 205.7,318.81 93.5,204.95 224.39,523.76 243.09,781.84l56.1 0 0 -698.34c-37.4,-129.05 -261.79,-485.81 -355.29,-584.49 -130.9,-174.59 -280.49,-333.99 -448.79,-470.62 -299.19,-235.32 -785.38,-516.17 -1290.27,-576.9l0 242.9z"/>
  <path class="fil0" d="M53705.2 16289.68l0 1168.97c-74.8,45.54 -112.2,53.13 -168.3,129.04 -130.89,212.54 18.7,493.4 280.5,485.81 299.19,-7.59 411.39,-387.13 186.99,-561.72 -37.39,-22.77 -74.79,-37.95 -93.49,-60.72l0 -1806.6 -261.8 0 0 -7.59 56.1 7.59 0 645.22z"/>
  <path class="fil3" d="M22757.39 4850.45c-93.5,30.36 -130.9,204.95 74.8,204.95l2113.05 0c130.9,0 766.69,15.18 841.48,-7.59 93.5,-30.36 130.9,-204.95 -74.79,-204.95 -336.6,0 -2898.44,-15.18 -2954.54,7.59z"/>
  <path class="fil0" d="M53705.2 14095.96l0 698.34 205.7 0c0,-189.77 -18.7,-1715.5 0,-1761.05 93.49,-53.13 112.19,-53.13 168.29,-129.04 130.9,-189.77 -18.7,-493.4 -280.49,-493.4 -149.6,0 -280.49,121.46 -299.19,258.09 -18.7,91.09 0,174.59 37.39,235.31 74.8,91.09 93.5,91.09 168.3,129.04l0 1062.71z"/>
  <path class="fil2" d="M64550.96 24889.97c317.89,-83.5 560.99,-432.67 560.99,-774.26 0,-379.53 -280.5,-698.34 -560.99,-781.84l0 1556.1z"/>
  <path class="fil1" d="M20644.34 6968.26c-112.2,30.37 -93.5,174.59 0,197.36 56.1,15.18 1589.46,7.59 1776.46,7.59 112.2,0 635.79,15.19 710.58,-7.59 112.2,-22.77 112.2,-182.17 0,-204.95 -56.1,-7.59 -1608.16,0 -1776.46,0 -112.19,0 -635.78,-15.18 -710.58,7.59z"/>
  <path class="fil1" d="M20644.34 8023.38c-112.2,22.77 -112.2,174.58 0,204.94 37.4,15.19 1869.96,0 2131.75,0 74.8,0 299.19,15.19 355.29,0 112.2,-22.77 112.2,-182.17 0,-204.94 -56.1,-15.19 -1869.95,0 -2131.75,0 -74.8,0 -299.19,-15.19 -355.29,0z"/>
  <path class="fil2" d="M26403.81 20381.08c-187,30.36 -355.29,204.95 -336.59,432.67 37.4,197.36 205.69,364.35 430.09,326.4 205.69,-22.77 373.99,-197.36 336.59,-425.08 -18.7,-197.36 -205.69,-364.36 -430.09,-333.99z"/>
  <path class="fil1" d="M24870.44 3992.7l1926.06 0c168.3,0 168.3,-204.95 0,-204.95l-1926.06 0c-168.29,0 -168.29,204.95 0,204.95z"/>
  <path class="fil1" d="M20644.34 9078.49c-56.1,15.18 -112.2,91.08 -56.1,159.4 18.7,68.32 112.2,53.14 205.7,53.14 186.99,0 1495.96,7.59 1552.06,-7.59 56.1,-15.19 93.5,-91.09 56.1,-151.82 -37.4,-68.32 -130.9,-53.13 -205.7,-53.13 -186.99,0 -1495.96,-7.59 -1552.06,0z"/>
  <path class="fil3" d="M22776.09 9078.49c-74.8,15.18 -112.2,83.49 -74.8,159.4 37.4,68.32 112.2,53.14 205.7,53.14 186.99,0 1495.97,7.59 1552.06,-7.59 56.1,-15.19 93.5,-91.09 56.1,-151.82 -37.4,-68.32 -130.89,-53.13 -205.69,-53.13 -168.3,0 -1495.97,-7.59 -1533.37,0z"/>
  <path class="fil1" d="M20644.34 4850.45c-74.8,15.18 -112.2,91.09 -56.1,159.41 37.4,60.72 130.9,45.54 205.7,45.54 243.09,0 1495.96,7.59 1552.06,-7.59 56.1,-15.18 93.5,-98.68 56.1,-159.4 -56.1,-60.73 -130.9,-45.55 -224.4,-45.55 -168.29,0 -1477.26,-7.59 -1533.36,7.59z"/>
  <path class="fil1" d="M23561.47 6968.26c-74.79,15.19 -112.19,91.09 -74.79,159.41 56.09,60.73 149.59,45.54 224.39,45.54 168.3,0 1495.97,7.59 1533.37,-7.59 74.79,-15.18 112.19,-106.27 56.1,-166.99 -37.4,-53.14 -130.9,-37.96 -205.7,-37.96 -168.3,0 -1477.27,-7.59 -1533.37,7.59z"/>
  <path class="fil2" d="M12790.51 20623.98c-74.79,15.18 -112.19,98.68 -56.09,159.41 37.39,60.72 112.19,45.54 205.69,45.54 168.3,0 1495.97,7.59 1533.37,-7.59 74.8,-15.18 112.19,-98.68 56.1,-159.41 -37.4,-60.72 -112.2,-45.54 -205.7,-45.54 -168.3,0 -1495.97,-7.59 -1533.37,7.59z"/>
  <path class="fil4" d="M42298.46 20054.68c0,-834.98 0,-1677.55 0,-2520.13l0 -7552.77 14286.48 0 0 10042.53c18.7,-22.77 0,-8144.85 0,-9731.31 0,-83.5 18.7,-235.31 0,-311.22 -56.1,-22.77 -3422.03,-7.59 -3571.62,-7.59 -3422.03,0 -6844.05,0 -10266.07,0 -130.9,0 -336.6,-15.18 -448.79,0 -18.7,68.32 -18.7,1100.66 -18.7,1260.06l0 6307.9c0,258.08 -18.7,2466.98 18.7,2512.53z"/>
  <path class="fil3" d="M20644.34 11196.3c-56.1,15.18 -93.5,68.32 -74.8,136.63 18.7,68.32 74.8,75.91 149.6,75.91 168.29,0 1290.27,7.59 1346.37,-7.59 56.1,-7.59 93.5,-68.32 74.8,-136.63 -18.7,-60.73 -74.8,-68.32 -149.6,-68.32 -168.3,0 -1290.27,-7.59 -1346.37,0z"/>
  <path class="fil1" d="M23019.19 3787.75c-37.4,22.77 -93.5,68.32 -74.8,136.63 18.7,60.73 74.8,75.91 149.59,68.32 149.6,0 1252.88,15.18 1308.98,0 93.49,-22.77 112.19,-151.81 18.69,-197.36 -18.69,-15.18 -56.09,-7.59 -93.49,-7.59 -205.7,0 -1252.88,-15.18 -1308.97,0z"/>
  <path class="fil0" d="M12865.31 25573.13c-373.99,68.32 -280.49,652.81 112.2,592.08 392.69,-60.73 299.19,-667.98 -112.2,-592.08z"/>
  <path class="fil1" d="M26198.12 4850.45c-112.2,30.36 -93.5,189.77 18.69,204.95 93.5,7.59 280.5,0 392.7,0 112.19,0 673.18,15.18 766.68,-7.59 93.5,-30.36 93.5,-189.77 -18.7,-204.95 -93.5,-7.59 -299.19,0 -392.69,0 -112.2,0 -691.89,-15.18 -766.68,7.59z"/>
  <path class="fil2" d="M12771.81 21208.47c-112.19,37.95 -93.49,197.35 37.4,204.95 149.6,7.59 1121.98,0 1159.38,-7.6 93.5,-45.54 74.8,-197.35 -56.1,-204.94 -130.9,-7.6 -1103.28,0 -1140.68,7.59z"/>
  <path class="fil1" d="M22233.8 5905.56c-112.19,30.37 -93.49,197.36 18.7,204.95 130.9,15.18 1121.98,7.59 1159.38,0 93.5,-37.95 74.8,-197.36 -37.4,-204.95 -112.2,-15.18 -261.8,0 -373.99,0 -130.9,0 -691.89,-15.18 -766.69,0z"/>
  <path class="fil3" d="M20644.34 5905.56c-112.2,37.96 -93.5,197.36 18.7,204.95 112.2,15.18 261.79,0 392.69,0 112.2,0 691.88,15.18 766.68,0 93.5,-30.36 93.5,-197.36 -37.4,-204.95 -112.19,-15.18 -261.79,0 -373.99,0 -130.9,0 -691.88,-15.18 -766.68,0z"/>
  <path class="fil1" d="M24870.44 9086.08c-93.49,30.36 -93.49,144.22 -18.69,189.76 37.39,30.37 224.39,15.19 299.19,15.19 112.2,0 579.69,7.59 635.78,-7.59 93.5,-22.78 93.5,-144.23 18.7,-189.77 -56.09,-30.37 -897.58,-15.18 -934.98,-7.59z"/>
  <path class="fil1" d="M20644.34 3787.75c-74.8,22.77 -112.2,121.45 -56.1,174.59 56.1,53.13 187,30.36 261.79,30.36 93.5,0 504.89,15.18 560.99,0 74.8,-22.77 112.2,-121.45 56.1,-182.18 -56.1,-37.95 -187,-22.77 -261.79,-22.77 -93.5,0 -504.89,-15.18 -560.99,0z"/>
  <path class="fil3" d="M21841.11 3787.75c-93.5,22.77 -112.2,121.45 -56.1,182.18 56.1,45.54 187,22.77 261.8,22.77 93.5,0 504.89,15.18 560.99,0 74.79,-22.77 93.49,-121.45 37.39,-174.59 -37.39,-53.13 -168.29,-30.36 -243.09,-30.36 -93.5,0 -523.59,-15.18 -560.99,0z"/>
  <polygon class="fil2" points="48301.02,15431.92 48731.11,15431.92 48731.11,15006.84 48301.02,15006.84 "/>
  <path class="fil2" d="M50975.06 12752.4l430.09 7.59 0 -425.08c-56.1,-7.59 -392.69,-7.59 -430.09,7.59l0 409.9z"/>
  <path class="fil1" d="M20158.15 516.15c-112.2,30.36 -205.7,144.22 -168.3,288.44 37.4,113.87 149.6,212.55 299.2,167 299.19,-91.09 168.29,-546.53 -130.9,-455.44z"/>
  <path class="fil3" d="M44879 8865.95c-317.89,53.13 -243.1,523.76 74.8,470.62 299.19,-45.54 224.39,-516.17 -74.8,-470.62z"/>
  <path class="fil0" d="M19354.07 516.15c-299.2,91.09 -168.3,531.35 130.9,455.44 112.19,-30.36 205.69,-144.22 168.29,-296.04 -37.4,-106.27 -149.6,-204.95 -299.19,-159.4z"/>
  <path class="fil3" d="M20943.53 508.56c-112.19,37.95 -205.69,151.81 -149.59,296.03 74.79,296.04 523.58,182.18 448.79,-121.45 -18.7,-113.86 -149.6,-212.54 -299.2,-174.58z"/>
  <path class="fil2" d="M43289.53 8865.95c-299.19,45.54 -243.09,516.17 74.8,470.62 299.2,-37.95 243.1,-508.58 -74.8,-470.62z"/>
  <path class="fil1" d="M44074.92 8873.54c-317.9,68.31 -205.7,531.35 93.49,463.03 299.2,-68.32 205.7,-531.35 -93.49,-463.03z"/>
  <polygon class="fil2" points="53574.3,15431.92 53985.69,15431.92 53985.69,15006.84 53574.3,15006.84 "/>
  <polygon class="fil2" points="50956.36,18020.36 50956.36,18050.72 51367.75,18050.72 51367.75,17633.23 51349.05,17625.64 50956.36,17625.64 "/>
  <path class="fil1" d="M23823.27 5905.56c-74.8,22.77 -112.2,91.09 -74.8,159.41 37.4,60.72 130.9,45.54 205.7,45.54 93.49,0 467.48,15.18 504.88,0 56.1,-22.77 93.5,-98.68 56.1,-159.4 -37.4,-60.73 -112.19,-45.55 -205.69,-45.55 -74.8,0 -430.09,-15.18 -486.19,0z"/>
  <path class="fil2" d="M12771.81 21792.95c-56.09,15.18 -93.49,98.68 -37.39,159.41 37.39,53.13 112.19,37.95 205.69,37.95 74.8,0 448.79,15.18 486.19,0 56.1,-22.77 93.5,-98.68 56.1,-159.4 -56.1,-60.73 -130.9,-45.55 -224.4,-45.55 -74.79,0 -430.09,-15.18 -486.19,7.59z"/>
  <path class="fil5" d="M19858.96 9078.49c-93.5,15.18 -112.2,151.81 -37.4,197.35 37.4,22.78 280.49,22.78 336.59,15.19 112.2,-22.78 112.2,-167 37.4,-204.95 -37.4,-15.18 -299.19,-15.18 -336.59,-7.59z"/>
  <path class="fil2" d="M61820.82 21466.55l691.88 0c-37.39,-91.09 -186.99,-189.77 -336.59,-189.77 -149.59,0 -317.89,98.68 -355.29,189.77z"/>
  <path class="fil5" d="M19840.26 6968.26c-93.5,30.37 -93.5,167 0,197.36 37.4,15.18 299.19,15.18 336.59,0 93.5,-22.77 93.5,-166.99 0,-197.36 -37.4,-15.18 -299.19,-15.18 -336.59,0z"/>
  <path class="fil5" d="M19840.26 4850.45c-93.5,30.36 -93.5,167 0,197.36 37.4,15.18 299.19,15.18 336.59,0 93.5,-22.77 93.5,-167 0,-197.36 -37.4,-15.18 -299.19,-15.18 -336.59,0z"/>
  <path class="fil5" d="M19840.26 5905.56c-93.5,30.37 -93.5,167 0,197.36 37.4,15.18 299.19,15.18 336.59,7.59 37.4,-15.18 74.8,-53.13 74.8,-98.68 0,-60.72 -37.4,-91.09 -74.8,-106.27 -37.4,-7.59 -299.19,-7.59 -336.59,0z"/>
  <path class="fil5" d="M19840.26 3787.75c-93.5,30.36 -93.5,167 0,197.36 18.7,15.18 299.19,15.18 336.59,7.59 93.5,-30.36 93.5,-167 0,-204.95 -37.4,-7.59 -299.19,-7.59 -336.59,0z"/>
  <path class="fil5" d="M19858.96 11196.3c-112.2,30.36 -112.2,159.4 -37.4,197.36 56.1,22.77 299.19,22.77 336.59,7.59 112.2,-22.77 112.2,-167 18.7,-197.36 -18.7,-15.18 -280.49,-15.18 -317.89,-7.59z"/>
  <path class="fil5" d="M19858.96 10141.19c-112.2,22.77 -112.2,159.4 -37.4,197.36 37.4,15.18 299.19,15.18 336.59,7.59 112.2,-22.77 112.2,-167 18.7,-204.95 -18.7,-7.59 -280.49,-7.59 -317.89,0z"/>
  <path class="fil5" d="M19858.96 8023.38c-112.2,22.77 -112.2,159.4 -37.4,197.35 56.1,15.19 299.19,15.19 336.59,7.59 112.2,-22.77 112.2,-166.99 18.7,-197.35 -18.7,-15.19 -280.49,-15.19 -317.89,-7.59z"/>
 </g>
</svg>
